<?xml version="1.0" standalone="no"?>
<!DOCTYPE svg PUBLIC "-//W3C//DTD SVG 20010904//EN"
 "http://www.w3.org/TR/2001/REC-SVG-20010904/DTD/svg10.dtd">
<svg version="1.0" xmlns="http://www.w3.org/2000/svg"
 width="1024.000000pt" height="1024.000000pt" viewBox="0 0 1024.000000 1024.000000"
 preserveAspectRatio="xMidYMid meet">

<g transform="translate(0.000000,1024.000000) scale(0.100000,-0.100000)"
fill="#000000" stroke="none">
<path d="M3166 7480 c-65 -33 -155 -86 -199 -117 -192 -138 -412 -400 -543
-647 -93 -176 -185 -458 -188 -578 0 -31 -4 -54 -8 -51 -5 2 -8 -8 -8 -24 0
-22 2 -25 10 -13 8 12 10 11 10 -7 0 -12 -3 -29 -7 -39 -6 -16 -7 -16 -15 2
-5 13 -7 4 -4 -27 2 -26 -1 -53 -5 -62 -6 -9 -5 -18 0 -21 5 -4 12 8 16 25 11
48 22 22 33 -76 5 -49 19 -122 30 -162 11 -40 18 -74 16 -76 -4 -3 17 -105 34
-167 6 -19 13 -62 17 -95 4 -33 13 -72 21 -87 8 -15 16 -60 19 -100 3 -40 10
-84 15 -98 4 -14 11 -58 14 -98 4 -40 13 -89 21 -107 8 -21 11 -49 8 -71 -5
-31 -3 -36 9 -32 8 4 15 0 15 -8 0 -7 -4 -11 -9 -8 -4 3 -5 -2 -2 -10 3 -9 11
-13 17 -9 6 3 7 1 3 -5 -22 -36 245 -439 414 -627 188 -209 272 -293 440 -444
217 -195 346 -303 525 -438 72 -55 168 -128 215 -164 344 -265 1123 -765 1209
-776 48 -7 92 17 391 209 199 127 226 146 219 151 -2 2 -55 14 -116 26 -204
40 -360 96 -547 196 -56 30 -98 55 -95 55 4 0 49 -20 100 -44 173 -82 415
-150 630 -178 l96 -12 47 30 c85 53 345 244 364 267 8 9 -7 12 -66 13 -93 0
-162 29 -244 102 -119 106 -990 952 -1368 1330 -374 373 -679 688 -509 524 36
-34 68 -60 72 -56 4 4 9 -1 13 -10 3 -9 17 -16 29 -16 13 0 26 -6 29 -12 5
-10 7 -10 12 0 3 6 12 12 20 12 9 0 12 -4 9 -10 -4 -6 14 -10 47 -10 32 0 62
-6 76 -16 20 -14 22 -14 22 0 0 19 13 20 42 5 15 -8 19 -8 14 0 -4 6 -2 11 4
11 7 0 -47 62 -119 138 -72 76 -147 159 -167 185 -20 26 -40 44 -45 41 -13 -8
-11 -14 4 -12 6 2 11 -3 9 -10 -1 -7 5 -15 13 -18 8 -4 15 -10 15 -15 0 -21
-42 19 -60 57 -22 45 -25 58 -10 49 6 -3 7 1 3 10 -4 12 -8 13 -13 5 -9 -15
-50 8 -50 29 0 8 -14 36 -31 63 -17 27 -33 61 -34 76 -1 15 -10 45 -19 67 -18
43 -16 141 6 217 11 38 63 94 107 115 28 14 26 14 -69 -7 -91 -20 -247 -100
-340 -175 -47 -37 -74 -56 -61 -41 21 22 24 35 22 82 -2 54 3 75 36 154 48
113 170 226 308 287 59 26 49 29 -26 7 -201 -59 -400 -233 -514 -449 -20 -38
-34 -61 -30 -50 8 26 7 206 -1 254 -4 20 -11 44 -15 53 -19 36 72 194 177 307
79 86 163 146 280 203 162 77 228 91 434 91 157 0 185 -2 272 -26 151 -40 285
-113 384 -209 l52 -50 -118 -104 c-107 -94 -122 -104 -157 -104 -53 0 -186
-66 -240 -118 -73 -71 -104 -153 -110 -287 -2 -49 -6 -133 -9 -186 -6 -109 9
-187 52 -263 31 -55 72 -88 137 -110 27 -9 61 -23 77 -31 16 -8 41 -15 56 -15
15 0 37 -8 48 -17 l21 -18 -21 25 c-11 14 -50 59 -86 100 -155 179 -240 307
-262 400 -3 14 3 6 13 -17 25 -53 98 -151 123 -164 10 -5 18 -18 18 -28 0 -21
52 -70 93 -88 22 -10 54 -10 163 2 74 7 143 11 151 8 10 -4 14 -2 10 4 -5 7 6
14 25 18 45 9 131 58 204 116 34 27 65 45 69 41 5 -4 5 -2 2 4 -6 10 20 39 66
73 15 12 17 12 10 -5 -5 -14 2 -12 32 12 22 17 48 34 58 37 10 4 15 11 12 17
-3 6 1 7 9 4 9 -3 16 -2 16 4 0 6 9 8 20 5 11 -3 20 0 20 6 0 7 23 11 63 11
l64 0 159 -152 c219 -209 946 -920 1189 -1163 246 -245 260 -268 260 -417 0
-54 3 -98 8 -98 4 0 74 66 157 146 307 300 547 638 679 954 55 133 145 438
156 525 5 47 3 44 -30 -44 -78 -207 -234 -500 -361 -678 -70 -97 -226 -282
-285 -338 l-43 -40 32 41 c17 22 39 47 48 55 24 20 99 123 96 132 -1 4 3 7 8
7 6 0 10 9 10 21 0 13 4 18 12 13 8 -5 9 -2 5 10 -4 10 -3 15 3 11 6 -3 11 -1
11 4 1 6 2 14 4 19 1 4 5 25 9 47 4 22 11 49 16 60 8 18 18 82 26 163 2 18 23
63 47 100 53 80 73 118 121 234 68 166 128 401 142 563 4 44 9 74 11 68 7 -19
21 -16 28 7 3 11 15 20 25 20 13 0 20 10 25 38 4 20 16 63 27 94 11 32 17 66
13 77 -3 11 -2 22 4 25 5 4 12 -26 16 -71 9 -105 16 -118 11 -18 -9 158 -75
405 -164 622 -115 275 -423 627 -689 785 -79 47 -144 77 -91 42 15 -10 30 -25
33 -32 4 -12 2 -12 -17 0 -95 61 -97 58 -6 -11 75 -56 193 -180 269 -283 115
-156 223 -423 254 -633 28 -187 16 -500 -25 -655 -9 -32 -9 -31 -4 11 22 199
30 420 14 369 -8 -24 -8 -23 -9 8 -1 27 -5 32 -26 32 -14 0 -25 -4 -25 -10 0
-5 -18 -10 -40 -10 -22 0 -40 5 -40 10 0 15 -27 12 -33 -4 -9 -23 -47 -15 -48
9 0 20 0 20 -8 0 -8 -19 -9 -18 -13 5 -3 14 -6 -17 -7 -68 -3 -245 -91 -544
-221 -757 -94 -154 -319 -408 -427 -485 l-48 -33 34 36 c19 21 31 37 25 38 -5
0 1 4 13 9 16 7 21 14 16 26 -5 14 -3 16 11 11 10 -4 15 -3 11 3 -3 5 -24 15
-46 21 -27 9 -36 15 -27 21 9 5 4 8 -14 8 -16 0 -28 5 -28 10 0 6 -8 10 -19
10 -10 0 -65 23 -122 52 -57 28 -111 52 -119 52 -8 1 -53 -32 -99 -72 -76 -66
-86 -71 -100 -57 -14 14 5 36 200 224 230 224 329 333 403 449 76 117 173 328
203 437 24 90 27 118 27 275 0 136 -3 189 -17 238 -81 299 -265 511 -548 634
-48 20 -114 44 -147 52 -135 35 -397 38 -564 6 -57 -11 -180 -50 -276 -89 -72
-29 -63 -7 14 36 l59 33 -42 0 c-37 0 -43 3 -43 21 0 18 -5 21 -32 17 l-32 -5
30 25 c36 30 16 20 -61 -32 -126 -84 -277 -239 -368 -380 l-51 -79 -21 28
c-150 209 -290 360 -321 348 -11 -4 -15 -3 -10 5 4 8 -3 8 -26 1 -18 -5 -45
-9 -60 -9 -31 0 -47 -18 -27 -32 17 -12 13 -11 -149 48 -156 56 -228 73 -367
84 -215 18 -416 -15 -583 -95 -204 -98 -340 -224 -447 -411 -97 -170 -137
-337 -137 -564 1 -313 70 -513 289 -847 59 -89 174 -225 312 -368 47 -49 194
-202 326 -340 131 -137 489 -502 794 -810 1048 -1056 1151 -1162 1151 -1187 0
-9 -41 -1 -50 11 -3 3 -23 7 -45 8 -42 3 -188 43 -181 50 2 2 28 -3 57 -11 29
-9 76 -16 104 -16 30 0 60 -7 75 -16 33 -22 -52 63 -284 285 -104 99 -193 178
-198 175 -5 -3 -7 0 -6 8 2 8 -4 12 -16 10 -13 -3 -17 1 -13 11 3 8 -3 23 -14
33 -10 9 -19 14 -19 9 0 -4 -8 -1 -17 6 -17 13 -17 13 -3 -5 14 -18 13 -18
-10 -11 -14 4 -26 12 -28 16 -2 5 -9 9 -16 9 -8 0 -28 12 -45 28 -32 28 -49
37 -201 113 -47 23 -102 50 -122 61 -20 10 -42 18 -48 18 -5 0 -10 7 -10 15 0
10 -10 15 -30 15 -16 0 -30 5 -30 11 0 5 -4 8 -9 4 -5 -3 -13 0 -17 7 -5 8
-10 6 -15 -8 -7 -17 -8 -17 -8 -1 -1 9 -8 17 -16 17 -8 0 -15 7 -15 15 0 18
-86 69 -105 61 -10 -3 -17 3 -21 19 -3 14 -13 25 -21 25 -8 0 -11 -5 -8 -10
11 -18 -4 -10 -37 19 -33 28 -98 44 -114 28 -4 -4 3 -7 15 -7 12 0 20 -4 17
-9 -4 -5 0 -11 6 -14 10 -3 10 -7 1 -17 -9 -9 -54 30 -205 176 -430 418 -988
985 -1072 1089 -196 245 -320 508 -378 805 -18 93 -22 151 -23 301 l0 187 -33
23 c-30 20 -33 26 -27 56 3 19 2 33 -4 33 -21 0 -41 32 -35 56 4 17 1 26 -10
30 -13 5 -16 16 -13 45 2 22 2 37 -1 35 -12 -13 -42 17 -42 42 0 19 -3 23 -9
13 -5 -7 -6 -22 -3 -34 3 -12 1 -18 -5 -14 -6 4 -19 -34 -32 -96 -13 -56 -29
-128 -37 -160 -8 -32 -14 -75 -15 -95 -1 -20 -5 -48 -9 -62 -12 -34 -3 97 16
230 47 338 181 626 397 855 47 50 114 112 151 140 36 27 66 53 66 57 0 5 4 8
10 8 5 0 31 14 57 30 74 47 38 35 -91 -30z m1668 -303 c65 -19 90 -33 138 -76
33 -30 58 -61 58 -72 0 -10 9 -28 21 -40 17 -17 18 -23 7 -37 -10 -12 -10 -14
0 -8 8 5 15 -2 22 -18 5 -14 12 -26 15 -26 4 0 3 6 0 13 -4 6 0 3 9 -8 8 -11
21 -27 28 -35 7 -8 37 -43 67 -79 79 -97 78 -96 121 -42 20 25 65 73 99 106
35 33 101 97 147 143 46 45 88 82 92 82 5 0 17 9 29 19 59 55 164 81 333 81
90 0 131 -4 145 -14 12 -7 61 -16 115 -19 195 -12 371 -73 503 -174 69 -54 76
-66 9 -18 -175 125 -426 186 -682 165 -123 -10 -151 -15 -244 -42 -97 -28
-206 -80 -301 -143 -80 -53 -227 -196 -261 -254 l-17 -28 -76 91 c-42 49 -103
112 -136 139 -268 217 -669 298 -1021 206 -94 -24 -246 -94 -315 -145 -27 -19
-49 -32 -49 -27 1 16 96 79 196 129 114 57 220 87 391 109 62 7 122 19 134 25
64 35 302 33 423 -3z m-382 -285 c7 -7 25 -12 40 -12 16 0 36 -4 46 -9 15 -9
98 -40 146 -55 10 -4 17 -8 15 -10 -2 -2 -44 6 -94 17 -71 16 -128 20 -270 21
-205 1 -273 -12 -447 -82 -54 -22 -98 -37 -98 -35 0 4 164 84 180 88 65 18
120 38 120 45 0 5 15 12 33 15 17 4 37 11 42 15 26 21 267 22 287 2z m1961 2
c66 -15 227 -85 253 -110 7 -6 39 -28 73 -50 33 -21 61 -43 61 -47 0 -5 -13 1
-30 13 -50 36 -195 99 -283 122 -71 20 -106 23 -267 23 -144 0 -201 -4 -259
-18 -40 -10 -75 -16 -78 -14 -2 2 29 15 69 27 40 13 77 27 83 32 5 4 18 8 30
8 11 0 38 7 60 15 54 19 200 19 288 -1z m-2753 -8 c0 -2 -8 -10 -17 -17 -16
-13 -17 -12 -4 4 13 16 21 21 21 13z m2195 -86 c-27 -12 -43 -12 -25 0 8 5 22
9 30 9 10 0 8 -3 -5 -9z m-1105 -10 c18 -12 2 -12 -25 0 -13 6 -15 9 -5 9 8 0
22 -4 30 -9z m1663 -274 c154 -46 280 -118 395 -230 113 -108 225 -284 198
-311 -7 -7 -18 -56 -25 -109 -8 -52 -17 -93 -22 -91 -4 3 -1 -7 6 -22 33 -68
24 -81 -11 -15 -47 92 -142 204 -225 267 -111 84 -313 167 -399 164 -23 -1
-23 -2 5 -9 39 -11 97 -33 110 -43 6 -4 37 -28 70 -52 69 -53 121 -110 163
-181 31 -53 40 -88 46 -166 1 -28 10 -56 21 -68 30 -33 10 -23 -62 32 -129 98
-305 162 -473 172 -41 3 -65 3 -52 0 30 -7 38 -30 18 -53 -9 -10 -16 -22 -17
-27 0 -15 -51 -50 -83 -58 l-29 -7 24 -26 24 -27 -30 20 c-37 25 -113 61 -185
86 -78 28 -271 36 -363 14 -95 -22 -131 -43 -278 -162 -159 -129 -208 -154
-305 -154 -83 0 -147 19 -196 60 -92 76 -106 225 -28 295 18 17 38 20 118 22
76 2 99 6 116 21 63 55 251 216 396 337 247 206 334 261 490 309 122 38 186
45 350 41 119 -3 160 -8 233 -29z m-3934 -1368 c61 -221 140 -397 269 -598
153 -238 426 -539 678 -747 39 -32 86 -71 105 -86 30 -25 29 -25 -11 3 -151
104 -452 388 -620 586 -223 261 -393 579 -459 859 -20 84 -30 229 -11 160 5
-16 27 -96 49 -177z m1639 -144 c-4 -3 -12 5 -18 18 -12 22 -12 22 6 6 10 -10
15 -20 12 -24z m3592 -338 c0 -2 -8 -10 -17 -17 -16 -13 -17 -12 -4 4 13 16
21 21 21 13z m-3154 -939 c7 -22 53 -64 66 -60 4 2 5 -3 2 -11 -3 -7 6 -20 20
-29 14 -9 67 -58 118 -109 51 -52 109 -107 128 -123 93 -79 186 -160 200 -174
50 -50 -105 77 -230 188 -140 124 -350 333 -344 342 8 13 33 -2 40 -24z m-965
-54 c13 -16 12 -17 -3 -4 -17 13 -22 21 -14 21 2 0 10 -8 17 -17z m1844 -332
c3 -5 1 -12 -5 -16 -5 -3 -10 1 -10 9 0 18 6 21 15 7z m-289 -163 l19 -23 -25
20 c-14 11 -27 21 -29 22 -2 2 0 3 6 3 5 0 18 -10 29 -22z m257 -157 c53 -29
97 -55 97 -58 0 -2 -44 19 -97 48 -103 54 -233 135 -233 144 0 2 30 -15 68
-39 37 -23 111 -66 165 -95z m147 -76 c14 -8 21 -14 15 -14 -5 0 -21 6 -35 14
-14 8 -20 14 -15 14 6 0 21 -6 35 -14z m80 -35 c8 -5 11 -10 5 -10 -5 0 -17 5
-25 10 -8 5 -10 10 -5 10 6 0 17 -5 25 -10z m50 -20 c8 -5 11 -10 5 -10 -5 0
-17 5 -25 10 -8 5 -10 10 -5 10 6 0 17 -5 25 -10z"/>
<path d="M4148 6153 c7 -3 16 -2 19 1 4 3 -2 6 -13 5 -11 0 -14 -3 -6 -6z"/>
<path d="M2417 4823 c3 -7 6 -13 8 -13 2 0 5 6 8 13 3 8 -1 14 -8 14 -7 0 -11
-6 -8 -14z"/>
<path d="M5914 4800 c-36 -14 -64 -59 -64 -103 0 -40 5 -45 504 -541 564 -561
548 -541 554 -683 4 -79 5 -82 24 -72 61 33 348 297 348 320 0 2 -30 5 -66 7
-124 4 -110 -7 -664 551 -278 280 -518 514 -533 520 -33 13 -73 13 -103 1z"/>
<path d="M4630 4776 c0 -2 8 -10 18 -17 15 -13 16 -12 3 4 -13 16 -21 21 -21
13z"/>
<path d="M5564 4319 c-43 -12 -75 -50 -81 -98 l-6 -42 446 -440 c513 -506 509
-500 509 -648 0 -59 3 -79 11 -74 84 50 387 287 387 303 0 4 -30 10 -67 12
-38 2 -86 12 -108 23 -27 12 -200 178 -516 492 -326 325 -482 473 -496 473
-12 0 -27 2 -35 4 -7 2 -27 0 -44 -5z"/>
<path d="M4290 3991 c0 -6 4 -13 10 -16 6 -3 7 1 4 9 -7 18 -14 21 -14 7z"/>
<path d="M4350 3921 c0 -5 7 -15 17 -22 15 -13 15 -12 4 9 -12 23 -21 28 -21
13z"/>
<path d="M4423 3865 c0 -8 4 -12 8 -9 4 2 10 -5 14 -16 3 -11 10 -20 15 -20 5
0 7 8 3 18 -5 14 -3 15 8 5 7 -7 23 -13 36 -13 13 0 23 6 23 13 0 8 4 7 11 -3
8 -11 10 -12 7 -1 -2 8 -21 16 -42 18 -22 2 -47 8 -57 13 -23 13 -26 13 -26
-5z"/>
</g>
</svg>
